{"accessors" : [{"bufferView" : 0, "byteOffset" : 0, "componentType" : 5123, "count" : 132, "type" : "SCALAR", "max" : [106], "min" : [0]}, {"bufferView" : 1, "byteOffset" : 0, "componentType" : 5126, "count" : 107, "type" : "VEC3", "max" : [-2.050960063934326, 0.8805590271949768, 0.8824999928474426], "min" : [-4.553030014038086, -1.3560500144958496, -0.8824999928474426], "name" : "POSITION"}, {"bufferView" : 1, "byteOffset" : 12, "componentType" : 5126, "count" : 107, "type" : "VEC2", "max" : [0.970894992351532, 0.9999976754188538], "min" : [0, -0], "name" : "TEXCOORD_0"}, {"bufferView" : 1, "byteOffset" : 20, "componentType" : 5126, "count" : 107, "type" : "VEC3", "max" : [1.0000044107437134, 1.0000044107437134, 1.0000044107437134], "min" : [-1.0000044107437134, -1.0000044107437134, -1.0000044107437134], "name" : "NORMAL"}, {"bufferView" : 0, "byteOffset" : 264, "componentType" : 5123, "count" : 834, "type" : "SCALAR", "max" : [654], "min" : [0]}, {"bufferView" : 2, "byteOffset" : 0, "componentType" : 5126, "count" : 655, "type" : "VEC3", "max" : [-10.605899810791016, 0.872439980506897, 0.8824999928474426], "min" : [-13.407299995422363, -1.3433400392532349, -0.8824999928474426], "name" : "POSITION"}, {"bufferView" : 2, "byteOffset" : 12, "componentType" : 5126, "count" : 655, "type" : "VEC2", "max" : [1, 0.8774639964103699], "min" : [0, -0], "name" : "TEXCOORD_0"}, {"bufferView" : 2, "byteOffset" : 20, "componentType" : 5126, "count" : 655, "type" : "VEC3", "max" : [0.9703259468078613, 1.0000044107437134, 1.0000044107437134], "min" : [-0.9646324515342712, -1.0000044107437134, -1.0000044107437134], "name" : "NORMAL"}, {"bufferView" : 0, "byteOffset" : 1932, "componentType" : 5123, "count" : 10188, "type" : "SCALAR", "max" : [8155], "min" : [0]}, {"bufferView" : 3, "byteOffset" : 0, "componentType" : 5126, "count" : 8156, "type" : "VEC3", "max" : [13.407299995422363, 0.9006369709968567, 0.8824999928474426], "min" : [10.666600227355957, -1.3782000541687012, -0.8824999928474426], "name" : "POSITION"}, {"bufferView" : 3, "byteOffset" : 12, "componentType" : 5126, "count" : 8156, "type" : "VEC2", "max" : [1, 0.9999898672103882], "min" : [0, -0], "name" : "TEXCOORD_0"}, {"bufferView" : 3, "byteOffset" : 20, "componentType" : 5126, "count" : 8156, "type" : "VEC3", "max" : [1.0000028610229492, 1.000003457069397, 1.0000044107437134], "min" : [-1.0000039339065552, -1.0000044107437134, -1.0000044107437134], "name" : "NORMAL"}, {"bufferView" : 0, "byteOffset" : 22308, "componentType" : 5123, "count" : 9540, "type" : "SCALAR", "max" : [7624], "min" : [0]}, {"bufferView" : 4, "byteOffset" : 0, "componentType" : 5126, "count" : 7625, "type" : "VEC3", "max" : [-7.677340030670166, 0.9321020245552063, 0.8824999928474426], "min" : [-10.653200149536133, -1.4080899953842163, -0.8824999928474426], "name" : "POSITION"}, {"bufferView" : 4, "byteOffset" : 12, "componentType" : 5126, "count" : 7625, "type" : "VEC2", "max" : [1, 0.9999876022338867], "min" : [0, -0], "name" : "TEXCOORD_0"}, {"bufferView" : 4, "byteOffset" : 20, "componentType" : 5126, "count" : 7625, "type" : "VEC3", "max" : [1.0000038146972656, 1.0000040531158447, 1.0000044107437134], "min" : [-1.0000044107437134, -1.0000042915344238, -1.0000044107437134], "name" : "NORMAL"}, {"bufferView" : 0, "byteOffset" : 41388, "componentType" : 5123, "count" : 510, "type" : "SCALAR", "max" : [408], "min" : [0]}, {"bufferView" : 5, "byteOffset" : 0, "componentType" : 5126, "count" : 409, "type" : "VEC3", "max" : [3.4106500148773193, 0.871383011341095, 0.8824999928474426], "min" : [-1.8592900037765503, -1.3451100587844849, -0.8824999928474426], "name" : "POSITION"}, {"bufferView" : 5, "byteOffset" : 12, "componentType" : 5126, "count" : 409, "type" : "VEC2", "max" : [0.9889159798622131, 0.9999944567680359], "min" : [0, -0], "name" : "TEXCOORD_0"}, {"bufferView" : 5, "byteOffset" : 20, "componentType" : 5126, "count" : 409, "type" : "VEC3", "max" : [1.0000044107437134, 1.0000044107437134, 1.0000044107437134], "min" : [-1.0000044107437134, -1.0000044107437134, -1.0000044107437134], "name" : "NORMAL"}, {"bufferView" : 0, "byteOffset" : 42408, "componentType" : 5123, "count" : 9612, "type" : "SCALAR", "max" : [7668], "min" : [0]}, {"bufferView" : 6, "byteOffset" : 0, "componentType" : 5126, "count" : 7669, "type" : "VEC3", "max" : [10.464699745178223, 0.9157789945602417, 0.8824999928474426], "min" : [7.711770057678223, -1.3918800354003906, -0.8824999928474426], "name" : "POSITION"}, {"bufferView" : 6, "byteOffset" : 12, "componentType" : 5126, "count" : 7669, "type" : "VEC2", "max" : [1, 0.9999977946281433], "min" : [0, -0], "name" : "TEXCOORD_0"}, {"bufferView" : 6, "byteOffset" : 20, "componentType" : 5126, "count" : 7669, "type" : "VEC3", "max" : [1.0000016689300537, 1.0000044107437134, 1.0000044107437134], "min" : [-0.9999976754188538, -1.0000044107437134, -1.0000044107437134], "name" : "NORMAL"}, {"bufferView" : 0, "byteOffset" : 61632, "componentType" : 5123, "count" : 10158, "type" : "SCALAR", "max" : [8096], "min" : [0]}, {"bufferView" : 7, "byteOffset" : 0, "componentType" : 5126, "count" : 8097, "type" : "VEC3", "max" : [7.574999809265137, 0.9232730269432068, 0.8824999928474426], "min" : [4.866620063781738, -1.3980599641799927, -0.8824999928474426], "name" : "POSITION"}, {"bufferView" : 7, "byteOffset" : 12, "componentType" : 5126, "count" : 8097, "type" : "VEC2", "max" : [1, 0.9999964237213135], "min" : [0, -0], "name" : "TEXCOORD_0"}, {"bufferView" : 7, "byteOffset" : 20, "componentType" : 5126, "count" : 8097, "type" : "VEC3", "max" : [1.0000022649765015, 1.0000044107437134, 1.0000044107437134], "min" : [-1.000001072883606, -1.0000044107437134, -1.0000044107437134], "name" : "NORMAL"}, {"bufferView" : 0, "byteOffset" : 81948, "componentType" : 5123, "count" : 738, "type" : "SCALAR", "max" : [586], "min" : [0]}, {"bufferView" : 8, "byteOffset" : 0, "componentType" : 5126, "count" : 587, "type" : "VEC3", "max" : [7.3783698081970215, -2.4510600566864014, 0.8824999928474426], "min" : [-6.988729953765869, -7.957859992980957, -0.8824999928474426], "name" : "POSITION"}, {"bufferView" : 8, "byteOffset" : 12, "componentType" : 5126, "count" : 587, "type" : "VEC2", "max" : [1, 0.9999439716339111], "min" : [0, -0], "name" : "TEXCOORD_0"}, {"bufferView" : 8, "byteOffset" : 20, "componentType" : 5126, "count" : 587, "type" : "VEC3", "max" : [1.0000044107437134, 1.0000044107437134, 1.0000044107437134], "min" : [-1.0000044107437134, -1.0000044107437134, -1.0000044107437134], "name" : "NORMAL"}, {"bufferView" : 0, "byteOffset" : 83424, "componentType" : 5123, "count" : 828, "type" : "SCALAR", "max" : [658], "min" : [0]}, {"bufferView" : 9, "byteOffset" : 0, "componentType" : 5126, "count" : 659, "type" : "VEC3", "max" : [7.3783698081970215, 7.957859992980957, 0.8824999928474426], "min" : [-6.986609935760498, 1.7803599834442139, -0.8824999928474426], "name" : "POSITION"}, {"bufferView" : 9, "byteOffset" : 12, "componentType" : 5126, "count" : 659, "type" : "VEC2", "max" : [1, 0.9999563097953796], "min" : [0, -0], "name" : "TEXCOORD_0"}, {"bufferView" : 9, "byteOffset" : 20, "componentType" : 5126, "count" : 659, "type" : "VEC3", "max" : [1.0000044107437134, 1.0000044107437134, 1.0000044107437134], "min" : [-1.0000044107437134, -1.0000044107437134, -1.0000044107437134], "name" : "NORMAL"}, {"bufferView" : 0, "byteOffset" : 85080, "componentType" : 5123, "count" : 6102, "type" : "SCALAR", "max" : [4824], "min" : [0]}, {"bufferView" : 10, "byteOffset" : 0, "componentType" : 5126, "count" : 4825, "type" : "VEC3", "max" : [-4.614099979400635, 0.8805590271949768, 0.8824999928474426], "min" : [-7.320549964904785, -1.3581700325012207, -0.8824999928474426], "name" : "POSITION"}, {"bufferView" : 10, "byteOffset" : 12, "componentType" : 5126, "count" : 4825, "type" : "VEC2", "max" : [1, 0.9999977350234985], "min" : [0, -0], "name" : "TEXCOORD_0"}, {"bufferView" : 10, "byteOffset" : 20, "componentType" : 5126, "count" : 4825, "type" : "VEC3", "max" : [1.0000044107437134, 1.0000044107437134, 1.0000044107437134], "min" : [-1.0000044107437134, -1.0000044107437134, -1.0000044107437134], "name" : "NORMAL"}], "asset" : {"generator" : "Aspose.3D 23.11.1", "version" : "2.0"}, "buffers" : [{"uri" : "data:application/octet-stream;base64,", "byteLength" : 1653872}], "bufferViews" : [{"buffer" : 0, "byteOffset" : 0, "byteLength" : 97284, "target" : 34963}, {"buffer" : 0, "byteOffset" : 97288, "byteLength" : 4224, "byteStride" : 32, "target" : 34962}, {"buffer" : 0, "byteOffset" : 101516, "byteLength" : 26688, "byteStride" : 32, "target" : 34962}, {"buffer" : 0, "byteOffset" : 128208, "byteLength" : 326016, "byteStride" : 32, "target" : 34962}, {"buffer" : 0, "byteOffset" : 454228, "byteLength" : 305280, "byteStride" : 32, "target" : 34962}, {"buffer" : 0, "byteOffset" : 759512, "byteLength" : 16320, "byteStride" : 32, "target" : 34962}, {"buffer" : 0, "byteOffset" : 775836, "byteLength" : 307584, "byteStride" : 32, "target" : 34962}, {"buffer" : 0, "byteOffset" : 1083424, "byteLength" : 325056, "byteStride" : 32, "target" : 34962}, {"buffer" : 0, "byteOffset" : 1408484, "byteLength" : 23616, "byteStride" : 32, "target" : 34962}, {"buffer" : 0, "byteOffset" : 1432104, "byteLength" : 26496, "byteStride" : 32, "target" : 34962}, {"buffer" : 0, "byteOffset" : 1458604, "byteLength" : 195264, "byteStride" : 32, "target" : 34962}], "meshes" : [{"primitives" : [{"attributes" : {"POSITION" : 1, "TEXCOORD_0" : 2, "NORMAL" : 3}, "indices" : 0, "mode" : 4}], "name" : ""}, {"primitives" : [{"attributes" : {"POSITION" : 5, "TEXCOORD_0" : 6, "NORMAL" : 7}, "indices" : 4, "mode" : 4}], "name" : ""}, {"primitives" : [{"attributes" : {"POSITION" : 9, "TEXCOORD_0" : 10, "NORMAL" : 11}, "indices" : 8, "mode" : 4}], "name" : ""}, {"primitives" : [{"attributes" : {"POSITION" : 13, "TEXCOORD_0" : 14, "NORMAL" : 15}, "indices" : 12, "mode" : 4}], "name" : ""}, {"primitives" : [{"attributes" : {"POSITION" : 17, "TEXCOORD_0" : 18, "NORMAL" : 19}, "indices" : 16, "mode" : 4}], "name" : ""}, {"primitives" : [{"attributes" : {"POSITION" : 21, "TEXCOORD_0" : 22, "NORMAL" : 23}, "indices" : 20, "mode" : 4}], "name" : ""}, {"primitives" : [{"attributes" : {"POSITION" : 25, "TEXCOORD_0" : 26, "NORMAL" : 27}, "indices" : 24, "mode" : 4}], "name" : ""}, {"primitives" : [{"attributes" : {"POSITION" : 29, "TEXCOORD_0" : 30, "NORMAL" : 31}, "indices" : 28, "mode" : 4}], "name" : ""}, {"primitives" : [{"attributes" : {"POSITION" : 33, "TEXCOORD_0" : 34, "NORMAL" : 35}, "indices" : 32, "mode" : 4}], "name" : ""}, {"primitives" : [{"attributes" : {"POSITION" : 37, "TEXCOORD_0" : 38, "NORMAL" : 39}, "indices" : 36, "mode" : 4}], "name" : ""}], "nodes" : [{"mesh" : 0, "name" : "groupNumber_0"}, {"mesh" : 1, "name" : "groupNumber_1"}, {"mesh" : 2, "name" : "groupNumber_2"}, {"mesh" : 3, "name" : "groupNumber_3"}, {"mesh" : 4, "name" : "groupNumber_4"}, {"mesh" : 5, "name" : "groupNumber_5"}, {"mesh" : 6, "name" : "groupNumber_6"}, {"mesh" : 7, "name" : "groupNumber_7"}, {"mesh" : 8, "name" : "groupNumber_8"}, {"mesh" : 9, "name" : "groupNumber_9"}], "scene" : 0, "scenes" : [{"nodes" : [0, 1, 2, 3, 4, 5, 6, 7, 8, 9]}]}