{
  "accessors": [
    {
      "bufferView": 0,
      "componentType": 5125,
      "count": 132,
      "type": "SCALAR"
    },
    {
      "bufferView": 1,
      "componentType": 5126,
      "count": 56,
      "max": [
        -0.023240420779087,
        0.009978033708099437,
        0.009999999747378752
      ],
      "min": [
        -0.05159241573926032,
        -0.015366016470763438,
        -0.009999999747378752
      ],
      "type": "VEC3"
    },
    {
      "bufferView": 2,
      "componentType": 5126,
      "count": 56,
      "max": [
        0.9999999999989957,
        0.9999999999989957,
        1.0
      ],
      "min": [
        -0.9999999999989957,
        -0.9999999999989957,
        -1.0
      ],
      "type": "VEC3"
    },
    {
      "bufferView": 3,
      "componentType": 5126,
      "count": 56,
      "max": [
        0.9708943502870151,
        1.0
      ],
      "min": [
        0.0,
        0.0
      ],
      "type": "VEC2"
    },
    {
      "bufferView": 4,
      "componentType": 5125,
      "count": 834,
      "type": "SCALAR"
    },
    {
      "bufferView": 5,
      "componentType": 5126,
      "count": 249,
      "max": [
        -0.12018041327666644,
        0.009886000764149472,
        0.009999999747378745
      ],
      "min": [
        -0.15192442031498202,
        -0.015221980147626296,
        -0.009999999747378752
      ],
      "type": "VEC3"
    },
    {
      "bufferView": 6,
      "componentType": 5126,
      "count": 249,
      "max": [
        0.9703221915190751,
        0.9999999999999974,
        1.0
      ],
      "min": [
        -0.9646283193571773,
        -0.9999999999999974,
        -1.0
      ],
      "type": "VEC3"
    },
    {
      "bufferView": 7,
      "componentType": 5126,
      "count": 249,
      "max": [
        1.0,
        0.912894419886185
      ],
      "min": [
        0.0,
        0.0
      ],
      "type": "VEC2"
    },
    {
      "bufferView": 8,
      "componentType": 5125,
      "count": 10188,
      "type": "SCALAR"
    },
    {
      "bufferView": 9,
      "componentType": 5126,
      "count": 2840,
      "max": [
        0.15192442031498204,
        0.01020554997095463,
        0.009999999747378752
      ],
      "min": [
        0.12086750259312479,
        -0.015617063995310349,
        -0.009999999747378752
      ],
      "type": "VEC3"
    },
    {
      "bufferView": 10,
      "componentType": 5126,
      "count": 2840,
      "max": [
        0.9999984880162546,
        0.9999991036406545,
        1.0
      ],
      "min": [
        -0.9999995801208506,
        -0.9999999968852634,
        -1.0
      ],
      "type": "VEC3"
    },
    {
      "bufferView": 11,
      "componentType": 5126,
      "count": 2840,
      "max": [
        1.0,
        0.8243763501766728
      ],
      "min": [
        0.0,
        0.0
      ],
      "type": "VEC2"
    },
    {
      "bufferView": 12,
      "componentType": 5125,
      "count": 9540,
      "type": "SCALAR"
    },
    {
      "bufferView": 13,
      "componentType": 5126,
      "count": 2660,
      "max": [
        -0.08699531315828624,
        0.01056209122808957,
        0.009999999747378734
      ],
      "min": [
        -0.12071584664905176,
        -0.015955715199263226,
        -0.009999999747378752
      ],
      "type": "VEC3"
    },
    {
      "bufferView": 14,
      "componentType": 5126,
      "count": 2660,
      "max": [
        0.9999994967128484,
        0.9999996982744302,
        1.0
      ],
      "min": [
        -0.9999999881035299,
        -0.9999999553573344,
        -1.0
      ],
      "type": "VEC3"
    },
    {
      "bufferView": 15,
      "componentType": 5126,
      "count": 2660,
      "max": [
        1.0,
        0.7806526463009752
      ],
      "min": [
        0.0,
        0.0
      ],
      "type": "VEC2"
    },
    {
      "bufferView": 16,
      "componentType": 5125,
      "count": 510,
      "type": "SCALAR"
    },
    {
      "bufferView": 17,
      "componentType": 5126,
      "count": 191,
      "max": [
        0.03864756061726393,
        0.009873989951868667,
        0.009999999747378752
      ],
      "min": [
        -0.02106853385070545,
        -0.015242001919466092,
        -0.009999999747378752
      ],
      "type": "VEC3"
    },
    {
      "bufferView": 18,
      "componentType": 5126,
      "count": 191,
      "max": [
        0.9999999999959772,
        0.9999999999959772,
        1.0
      ],
      "min": [
        -0.9999999999959772,
        -0.9999999999959772,
        -1.0
      ],
      "type": "VEC3"
    },
    {
      "bufferView": 19,
      "componentType": 5126,
      "count": 191,
      "max": [
        0.9889162029081925,
        1.0
      ],
      "min": [
        0.0,
        0.0
      ],
      "type": "VEC2"
    },
    {
      "bufferView": 20,
      "componentType": 5125,
      "count": 9612,
      "type": "SCALAR"
    },
    {
      "bufferView": 21,
      "componentType": 5126,
      "count": 2686,
      "max": [
        0.11857956886695686,
        0.010377085003463904,
        0.009999999747378738
      ],
      "min": [
        0.08738547238165045,
        -0.015772009928127467,
        -0.009999999747378752
      ],
      "type": "VEC3"
    },
    {
      "bufferView": 22,
      "componentType": 5126,
      "count": 2686,
      "max": [
        0.9999973131044074,
        0.9999999988747192,
        1.0
      ],
      "min": [
        -0.9999932391542117,
        -0.9999999921751327,
        -1.0
      ],
      "type": "VEC3"
    },
    {
      "bufferView": 23,
      "componentType": 5126,
      "count": 2686,
      "max": [
        1.0,
        0.7825057179055223
      ],
      "min": [
        0.0,
        0.0
      ],
      "type": "VEC2"
    },
    {
      "bufferView": 24,
      "componentType": 5125,
      "count": 10158,
      "type": "SCALAR"
    },
    {
      "bufferView": 25,
      "componentType": 5126,
      "count": 2845,
      "max": [
        0.0858356646073189,
        0.010461998088443863,
        0.009999999747378745
      ],
      "min": [
        0.05514583833771686,
        -0.01584197908752763,
        -0.009999999747378752
      ],
      "type": "VEC3"
    },
    {
      "bufferView": 26,
      "componentType": 5126,
      "count": 2845,
      "max": [
        0.9999980088492764,
        1.0,
        1.0
      ],
      "min": [
        -0.999996658603445,
        -1.0,
        -1.0
      ],
      "type": "VEC3"
    },
    {
      "bufferView": 27,
      "componentType": 5126,
      "count": 2845,
      "max": [
        1.0,
        0.86876512096266
      ],
      "min": [
        0.0,
        0.0
      ],
      "type": "VEC2"
    },
    {
      "bufferView": 28,
      "componentType": 5125,
      "count": 738,
      "type": "SCALAR"
    },
    {
      "bufferView": 29,
      "componentType": 5126,
      "count": 255,
      "max": [
        0.08360763176033886,
        -0.027773954151850938,
        0.009999999747378734
      ],
      "min": [
        -0.07919240618765219,
        -0.09017400613310725,
        -0.009999999747378752
      ],
      "type": "VEC3"
    },
    {
      "bufferView": 30,
      "componentType": 5126,
      "count": 255,
      "max": [
        0.9999999999998778,
        0.9999999999998778,
        1.0
      ],
      "min": [
        -0.9999999999998778,
        -0.9999999999998778,
        -1.0
      ],
      "type": "VEC3"
    },
    {
      "bufferView": 31,
      "componentType": 5126,
      "count": 255,
      "max": [
        1.0,
        0.9853761106194568
      ],
      "min": [
        0.0,
        0.0
      ],
      "type": "VEC2"
    },
    {
      "bufferView": 32,
      "componentType": 5125,
      "count": 828,
      "type": "SCALAR"
    },
    {
      "bufferView": 33,
      "componentType": 5126,
      "count": 294,
      "max": [
        0.0836076107104704,
        0.09017400613310722,
        0.009999999747378752
      ],
      "min": [
        -0.07916843676101493,
        0.02017407622720252,
        -0.009999999747378752
      ],
      "type": "VEC3"
    },
    {
      "bufferView": 34,
      "componentType": 5126,
      "count": 294,
      "max": [
        0.9999999999997938,
        0.9999999999997938,
        1.0
      ],
      "min": [
        -0.9999999999997938,
        -0.9999999999997938,
        -1.0
      ],
      "type": "VEC3"
    },
    {
      "bufferView": 35,
      "componentType": 5126,
      "count": 294,
      "max": [
        1.0,
        0.9999667756732922
      ],
      "min": [
        0.0,
        0.0
      ],
      "type": "VEC2"
    },
    {
      "bufferView": 36,
      "componentType": 5125,
      "count": 6102,
      "type": "SCALAR"
    },
    {
      "bufferView": 37,
      "componentType": 5126,
      "count": 1717,
      "max": [
        -0.052284386857645526,
        0.009977985553983215,
        0.009999999747378745
      ],
      "min": [
        -0.08295243704849703,
        -0.01539003909726741,
        -0.009999999747378752
      ],
      "type": "VEC3"
    },
    {
      "bufferView": 38,
      "componentType": 5126,
      "count": 1717,
      "max": [
        0.9999999999997469,
        0.9999999999997469,
        1.0
      ],
      "min": [
        -0.9999999999997469,
        -0.9999999999997469,
        -1.0
      ],
      "type": "VEC3"
    },
    {
      "bufferView": 39,
      "componentType": 5126,
      "count": 1717,
      "max": [
        1.0,
        0.8376597958248646
      ],
      "min": [
        0.0,
        0.0
      ],
      "type": "VEC2"
    }
  ],
  "asset": {
    "generator": "Adobe Illustrator",
    "version": "2.0"
  },
  "bufferViews": [
    {
      "buffer": 0,
      "byteLength": 528,
      "target": 34963
    },
    {
      "buffer": 0,
      "byteLength": 672,
      "byteOffset": 528,
      "target": 34962
    },
    {
      "buffer": 0,
      "byteLength": 672,
      "byteOffset": 1200,
      "target": 34962
    },
    {
      "buffer": 0,
      "byteLength": 448,
      "byteOffset": 1872,
      "target": 34962
    },
    {
      "buffer": 0,
      "byteLength": 3336,
      "byteOffset": 2320,
      "target": 34963
    },
    {
      "buffer": 0,
      "byteLength": 2988,
      "byteOffset": 5656,
      "target": 34962
    },
    {
      "buffer": 0,
      "byteLength": 2988,
      "byteOffset": 8644,
      "target": 34962
    },
    {
      "buffer": 0,
      "byteLength": 1992,
      "byteOffset": 11632,
      "target": 34962
    },
    {
      "buffer": 0,
      "byteLength": 40752,
      "byteOffset": 13624,
      "target": 34963
    },
    {
      "buffer": 0,
      "byteLength": 34080,
      "byteOffset": 54376,
      "target": 34962
    },
    {
      "buffer": 0,
      "byteLength": 34080,
      "byteOffset": 88456,
      "target": 34962
    },
    {
      "buffer": 0,
      "byteLength": 22720,
      "byteOffset": 122536,
      "target": 34962
    },
    {
      "buffer": 0,
      "byteLength": 38160,
      "byteOffset": 145256,
      "target": 34963
    },
    {
      "buffer": 0,
      "byteLength": 31920,
      "byteOffset": 183416,
      "target": 34962
    },
    {
      "buffer": 0,
      "byteLength": 31920,
      "byteOffset": 215336,
      "target": 34962
    },
    {
      "buffer": 0,
      "byteLength": 21280,
      "byteOffset": 247256,
      "target": 34962
    },
    {
      "buffer": 0,
      "byteLength": 2040,
      "byteOffset": 268536,
      "target": 34963
    },
    {
      "buffer": 0,
      "byteLength": 2292,
      "byteOffset": 270576,
      "target": 34962
    },
    {
      "buffer": 0,
      "byteLength": 2292,
      "byteOffset": 272868,
      "target": 34962
    },
    {
      "buffer": 0,
      "byteLength": 1528,
      "byteOffset": 275160,
      "target": 34962
    },
    {
      "buffer": 0,
      "byteLength": 38448,
      "byteOffset": 276688,
      "target": 34963
    },
    {
      "buffer": 0,
      "byteLength": 32232,
      "byteOffset": 315136,
      "target": 34962
    },
    {
      "buffer": 0,
      "byteLength": 32232,
      "byteOffset": 347368,
      "target": 34962
    },
    {
      "buffer": 0,
      "byteLength": 21488,
      "byteOffset": 379600,
      "target": 34962
    },
    {
      "buffer": 0,
      "byteLength": 40632,
      "byteOffset": 401088,
      "target": 34963
    },
    {
      "buffer": 0,
      "byteLength": 34140,
      "byteOffset": 441720,
      "target": 34962
    },
    {
      "buffer": 0,
      "byteLength": 34140,
      "byteOffset": 475860,
      "target": 34962
    },
    {
      "buffer": 0,
      "byteLength": 22760,
      "byteOffset": 510000,
      "target": 34962
    },
    {
      "buffer": 0,
      "byteLength": 2952,
      "byteOffset": 532760,
      "target": 34963
    },
    {
      "buffer": 0,
      "byteLength": 3060,
      "byteOffset": 535712,
      "target": 34962
    },
    {
      "buffer": 0,
      "byteLength": 3060,
      "byteOffset": 538772,
      "target": 34962
    },
    {
      "buffer": 0,
      "byteLength": 2040,
      "byteOffset": 541832,
      "target": 34962
    },
    {
      "buffer": 0,
      "byteLength": 3312,
      "byteOffset": 543872,
      "target": 34963
    },
    {
      "buffer": 0,
      "byteLength": 3528,
      "byteOffset": 547184,
      "target": 34962
    },
    {
      "buffer": 0,
      "byteLength": 3528,
      "byteOffset": 550712,
      "target": 34962
    },
    {
      "buffer": 0,
      "byteLength": 2352,
      "byteOffset": 554240,
      "target": 34962
    },
    {
      "buffer": 0,
      "byteLength": 24408,
      "byteOffset": 556592,
      "target": 34963
    },
    {
      "buffer": 0,
      "byteLength": 20604,
      "byteOffset": 581000,
      "target": 34962
    },
    {
      "buffer": 0,
      "byteLength": 20604,
      "byteOffset": 601604,
      "target": 34962
    },
    {
      "buffer": 0,
      "byteLength": 13736,
      "byteOffset": 622208,
      "target": 34962
    }
  ],
  "buffers": [
    {
      "byteLength": 635944,
      "uri": "data:application/octet-stream;base64,"
    }
  ],
  "materials": [
    {
      "doubleSided": true,
      "pbrMetallicRoughness": {
        "baseColorFactor": [
          0.9999999403953552,
          0.9999999403953552,
          0.9999999403953552,
          1.0
        ],
        "metallicFactor": 0.0,
        "roughnessFactor": 0.4000000059604645
      }
    },
    {
      "doubleSided": true,
      "pbrMetallicRoughness": {
        "baseColorFactor": [
          0.9999999403953552,
          0.9999999403953552,
          0.9999999403953552,
          1.0
        ],
        "metallicFactor": 0.0,
        "roughnessFactor": 0.4000000059604645
      }
    },
    {
      "doubleSided": true,
      "pbrMetallicRoughness": {
        "baseColorFactor": [
          0.9999999403953552,
          0.9999999403953552,
          0.9999999403953552,
          1.0
        ],
        "metallicFactor": 0.0,
        "roughnessFactor": 0.4000000059604645
      }
    },
    {
      "doubleSided": true,
      "pbrMetallicRoughness": {
        "baseColorFactor": [
          0.9999999403953552,
          0.9999999403953552,
          0.9999999403953552,
          1.0
        ],
        "metallicFactor": 0.0,
        "roughnessFactor": 0.4000000059604645
      }
    },
    {
      "doubleSided": true,
      "pbrMetallicRoughness": {
        "baseColorFactor": [
          0.9999999403953552,
          0.9999999403953552,
          0.9999999403953552,
          1.0
        ],
        "metallicFactor": 0.0,
        "roughnessFactor": 0.4000000059604645
      }
    },
    {
      "doubleSided": true,
      "pbrMetallicRoughness": {
        "baseColorFactor": [
          0.9999999403953552,
          0.9999999403953552,
          0.9999999403953552,
          1.0
        ],
        "metallicFactor": 0.0,
        "roughnessFactor": 0.4000000059604645
      }
    },
    {
      "doubleSided": true,
      "pbrMetallicRoughness": {
        "baseColorFactor": [
          0.9999999403953552,
          0.9999999403953552,
          0.9999999403953552,
          1.0
        ],
        "metallicFactor": 0.0,
        "roughnessFactor": 0.4000000059604645
      }
    },
    {
      "doubleSided": true,
      "pbrMetallicRoughness": {
        "baseColorFactor": [
          0.9999999403953552,
          0.9999999403953552,
          0.9999999403953552,
          1.0
        ],
        "metallicFactor": 0.0,
        "roughnessFactor": 0.4000000059604645
      }
    },
    {
      "doubleSided": true,
      "pbrMetallicRoughness": {
        "baseColorFactor": [
          0.9999999403953552,
          0.9999999403953552,
          0.9999999403953552,
          1.0
        ],
        "metallicFactor": 0.0,
        "roughnessFactor": 0.4000000059604645
      }
    },
    {
      "doubleSided": true,
      "pbrMetallicRoughness": {
        "baseColorFactor": [
          0.9999999403953552,
          0.9999999403953552,
          0.9999999403953552,
          1.0
        ],
        "metallicFactor": 0.0,
        "roughnessFactor": 0.4000000059604645
      }
    }
  ],
  "meshes": [
    {
      "primitives": [
        {
          "attributes": {
            "NORMAL": 2,
            "POSITION": 1,
            "TEXCOORD_0": 3
          },
          "indices": 0,
          "material": 0,
          "mode": 4
        }
      ]
    },
    {
      "primitives": [
        {
          "attributes": {
            "NORMAL": 6,
            "POSITION": 5,
            "TEXCOORD_0": 7
          },
          "indices": 4,
          "material": 1,
          "mode": 4
        }
      ]
    },
    {
      "primitives": [
        {
          "attributes": {
            "NORMAL": 10,
            "POSITION": 9,
            "TEXCOORD_0": 11
          },
          "indices": 8,
          "material": 2,
          "mode": 4
        }
      ]
    },
    {
      "primitives": [
        {
          "attributes": {
            "NORMAL": 14,
            "POSITION": 13,
            "TEXCOORD_0": 15
          },
          "indices": 12,
          "material": 3,
          "mode": 4
        }
      ]
    },
    {
      "primitives": [
        {
          "attributes": {
            "NORMAL": 18,
            "POSITION": 17,
            "TEXCOORD_0": 19
          },
          "indices": 16,
          "material": 4,
          "mode": 4
        }
      ]
    },
    {
      "primitives": [
        {
          "attributes": {
            "NORMAL": 22,
            "POSITION": 21,
            "TEXCOORD_0": 23
          },
          "indices": 20,
          "material": 5,
          "mode": 4
        }
      ]
    },
    {
      "primitives": [
        {
          "attributes": {
            "NORMAL": 26,
            "POSITION": 25,
            "TEXCOORD_0": 27
          },
          "indices": 24,
          "material": 6,
          "mode": 4
        }
      ]
    },
    {
      "primitives": [
        {
          "attributes": {
            "NORMAL": 30,
            "POSITION": 29,
            "TEXCOORD_0": 31
          },
          "indices": 28,
          "material": 7,
          "mode": 4
        }
      ]
    },
    {
      "primitives": [
        {
          "attributes": {
            "NORMAL": 34,
            "POSITION": 33,
            "TEXCOORD_0": 35
          },
          "indices": 32,
          "material": 8,
          "mode": 4
        }
      ]
    },
    {
      "primitives": [
        {
          "attributes": {
            "NORMAL": 38,
            "POSITION": 37,
            "TEXCOORD_0": 39
          },
          "indices": 36,
          "material": 9,
          "mode": 4
        }
      ]
    }
  ],
  "nodes": [
    {
      "mesh": 0
    },
    {
      "mesh": 1
    },
    {
      "mesh": 2
    },
    {
      "mesh": 3
    },
    {
      "mesh": 4
    },
    {
      "mesh": 5
    },
    {
      "mesh": 6
    },
    {
      "mesh": 7
    },
    {
      "mesh": 8
    },
    {
      "mesh": 9
    }
  ],
  "scenes": [
    {
      "nodes": [
        0,
        1,
        2,
        3,
        4,
        5,
        6,
        7,
        8,
        9
      ]
    }
  ]
}
